<svg xmlns="http://www.w3.org/2000/svg">
  <svg id="logo-icon" viewBox="0 0 32 43" fill="none" xmlns="http://www.w3.org/2000/svg">
    <path
      d="M31.8706 11.1294C31.8706 17.276 26.8878 22.2588 20.7412 22.2588C14.5946 22.2588 9.61182 17.276 9.61182 11.1294C9.61182 4.98281 14.5946 0 20.7412 0C26.8878 0 31.8706 4.98281 31.8706 11.1294Z"
      fill="#FF6600"
    />
    <circle cx="4.55294" cy="5.0588" r="4.55294" fill="#FF6600" />
    <circle cx="4.55294" cy="16.1882" r="4.55294" fill="#FF6600" />
    <circle cx="4.55294" cy="27.3176" r="4.55294" fill="#FF6600" />
    <circle cx="4.55294" cy="38.447" r="4.55294" fill="#FF6600" />
  </svg>

  <svg id="danger-icon" viewBox="0 0 16 13" fill="none" xmlns="http://www.w3.org/2000/svg">
    <path
      fill-rule="evenodd"
      clip-rule="evenodd"
      d="M8.66666 7.66536C8.66666 8.03336 8.368 8.33203 8 8.33203C7.632 8.33203 7.33333 8.03336 7.33333 7.66536V4.9987C7.33333 4.6307 7.632 4.33203 8 4.33203C8.368 4.33203 8.66666 4.6307 8.66666 4.9987V7.66536ZM8 10.332C7.632 10.332 7.33333 10.0334 7.33333 9.66537C7.33333 9.29737 7.632 8.9987 8 8.9987C8.368 8.9987 8.66666 9.29737 8.66666 9.66537C8.66666 10.0334 8.368 10.332 8 10.332ZM15.0407 9.86736L9.926 1.38803C9.52666 0.726698 8.80666 0.332031 8 0.332031C7.19333 0.332031 6.47333 0.726698 6.074 1.38803L0.959331 9.86736C0.580664 10.496 0.569331 11.252 0.929331 11.8894C1.31533 12.574 2.06533 12.9987 2.88533 12.9987H13.1147C13.9347 12.9987 14.6847 12.574 15.0707 11.8894C15.4307 11.252 15.4193 10.496 15.0407 9.86736Z"
      fill="#E11900"
    />
  </svg>
</svg>
